<?xml version="1.0" standalone="no"?>
<!DOCTYPE svg PUBLIC "-//W3C//DTD SVG 20010904//EN"
 "http://www.w3.org/TR/2001/REC-SVG-20010904/DTD/svg10.dtd">
<svg version="1.0" xmlns="http://www.w3.org/2000/svg"
 width="106.000000pt" height="110.000000pt" viewBox="0 0 106.000000 110.000000"
 preserveAspectRatio="xMidYMid meet">

<g transform="translate(0.000000,110.000000) scale(0.100000,-0.100000)"
fill="#000000" stroke="none">
<path d="M0 550 l0 -550 530 0 530 0 0 550 0 550 -530 0 -530 0 0 -550z m344
337 c10 -52 83 -137 119 -137 4 0 7 38 7 85 l0 86 78 -3 77 -3 3 -83 3 -82 28
14 c42 22 87 79 95 120 l7 36 74 0 c41 0 77 -5 80 -10 4 -6 -1 -36 -10 -68
-28 -96 -88 -162 -189 -208 -31 -14 -56 -26 -56 -27 0 -1 57 -2 127 -2 l128 0
3 -67 3 -68 -138 0 -138 -1 47 -18 c121 -48 201 -139 222 -253 l7 -38 -79 0
c-79 0 -80 0 -87 27 -11 44 -43 90 -79 112 -18 12 -36 21 -40 21 -3 0 -6 -36
-6 -80 l0 -80 -80 0 -80 0 0 80 c0 44 -3 80 -7 80 -5 0 -23 -9 -41 -20 -35
-22 -68 -69 -77 -112 -7 -28 -7 -28 -87 -28 l-80 0 6 38 c18 105 102 202 212
247 l59 25 -138 0 -138 0 3 68 3 67 128 0 c70 0 127 1 127 2 0 1 -25 13 -56
27 -98 45 -159 110 -189 203 -25 77 -20 83 69 83 l74 0 6 -33z"/>
</g>
</svg>
